<?xml version="1.0" standalone="no"?>
<!DOCTYPE svg PUBLIC "-//W3C//DTD SVG 1.1//EN" "http://www.w3.org/Graphics/SVG/1.1/DTD/svg11.dtd" >
<svg xmlns="http://www.w3.org/2000/svg">
<metadata>
This is a custom SVG webfont generated by Font Squirrel.
Copyright   : 2004 Tup Wanders
Designer    : Tup Wanders
Foundry     : Free Font Do not sell
</metadata>
<defs>
<font id="webfontFQ3XYLDa" horiz-adv-x="536" >
<font-face units-per-em="2048" ascent="1638" descent="-410" />
<missing-glyph horiz-adv-x="956" />
<glyph unicode=" "  horiz-adv-x="956" />
<glyph unicode="&#x09;" horiz-adv-x="956" />
<glyph unicode="&#xa0;" horiz-adv-x="956" />
<glyph unicode="!" d="M203 0v123h143v-123h-143zM225 305h103v1333h-103v-1333z" />
<glyph unicode="&#x22;" horiz-adv-x="526" d="M113 1411h106l17 227h-123v-227zM297 1411h106l17 227h-123v-227z" />
<glyph unicode="#" horiz-adv-x="1331" d="M170 596h215l-143 -602h104l146 602h241l-145 -602h106l144 602h331v102h-307l43 176h264v103h-241l157 657h-104l-158 -657h-241l157 657h-104l-158 -657h-307v-103h283l-43 -176h-240v-102zM516 698l41 176h242l-41 -176h-242z" />
<glyph unicode="$" horiz-adv-x="1046" d="M94 111q156 -123 375 -129v-109h100v113q315 39 367 319q10 57 10 101q0 115 -94 215q-70 76 -283 237v705q174 -20 301 -131v106q-137 102 -301 117v98h-100v-98q-295 -27 -358 -330q-8 -39 -9 -78q0 -145 121 -266q27 -27 101 -76q100 -66 145 -100v-727 q-184 16 -375 143v-110zM209 1241q0 23 8 64q47 231 252 258v-631q-123 94 -164 133q-96 94 -96 176zM569 78v651q143 -113 199 -178q72 -84 72 -162q0 -18 -6 -47q-54 -237 -265 -264z" />
<glyph unicode="%" horiz-adv-x="1253" d="M137 1417q0 -90 62.5 -152.5t150.5 -62.5t150.5 62.5t62.5 152.5q0 88 -62.5 150.5t-150.5 62.5t-150.5 -62.5t-62.5 -150.5zM225 1417q0 51 37 87t88 36t88 -36t37 -87q0 -53 -37 -89t-88 -36t-88 36t-37 89zM248 -2h112l680 1663h-110zM707 186q0 -88 62 -150.5 t153 -62.5q88 0 150.5 62.5t62.5 150.5q0 90 -62.5 152.5t-150.5 62.5q-90 0 -152.5 -62.5t-62.5 -152.5zM797 186q0 53 35.5 89t89.5 36q51 0 86.5 -35.5t35.5 -89.5q0 -51 -35.5 -87t-86.5 -36q-53 0 -89 36t-36 87z" />
<glyph unicode="&#x26;" horiz-adv-x="1488" d="M92 416q0 -158 103 -283q135 -166 399 -166q164 0 285 62q74 37 196 143l25 23l180 -193h127l-256 270l14 21q178 256 197 549h-102q-23 -201 -70 -320q-25 -61 -80 -139l-23 -33l-458 500l33 18q180 94 249 164q115 115 115 289q0 143 -96 244q-109 111 -287 110 q-186 0 -305 -125q-106 -111 -107 -241q0 -106 52 -193q41 -70 172 -209l28 -28l-37 -19q-186 -88 -270 -193.5t-84 -250.5zM188 412q0 129 80 215q74 80 256 159l21 9l487 -533l-20 -20q-80 -82 -138 -117q-123 -76 -272 -76q-256 0 -360 176q-54 91 -54 187zM328 1303 q0 129 87 208.5t222 79.5q150 0 227 -88q66 -74 66 -192q0 -137 -86 -224q-70 -70 -254 -155l-21 -8l-28 30q-104 115 -138 160q-75 105 -75 189z" />
<glyph unicode="'" horiz-adv-x="444" d="M160 1411h106l17 227h-123v-227z" />
<glyph unicode="(" horiz-adv-x="692" d="M184 936q6 197 33 373q66 422 227 669l88 -36q-227 -330 -241 -1006q6 -199 31 -371q61 -416 210 -637l-98 -32q-234 366 -250 1040z" />
<glyph unicode=")" horiz-adv-x="692" d="M184 -72l99 -32q233 367 249 1040q-6 197 -32 373q-66 422 -228 669l-88 -36q227 -330 242 -1006q-6 -199 -31 -371q-61 -416 -211 -637z" />
<glyph unicode="*" horiz-adv-x="645" d="M115 1430l127 -41l-82 -113l80 -59l84 114l82 -112l81 57l-77 106l129 43l-31 95l-135 -43v147h-101v-139l-127 41z" />
<glyph unicode="+" horiz-adv-x="940" d="M106 596v100h721v-100h-721zM416 287v721h102v-721h-102z" />
<glyph unicode="," horiz-adv-x="430" d="M96 -129q86 47 86 129h-41v143h144v-143q-2 -133 -152 -213zM182 0h103l-103 2v-2z" />
<glyph unicode="-" horiz-adv-x="772" d="M123 596v100h536v-100h-536z" />
<glyph unicode="." d="M195 0v143h143v-143h-143z" />
<glyph unicode="/" horiz-adv-x="878" d="M158 -6h104l451 1878h-105z" />
<glyph unicode="0" horiz-adv-x="1318" d="M104 592q0 -287 149.5 -453t395.5 -166q256 0 400.5 163t144.5 456q0 254 -164 436t-381 182t-381 -182t-164 -436zM209 592q0 211 134 363.5t308 152.5t307.5 -152.5t133.5 -363.5q0 -236 -123 -376t-318 -140q-199 0 -317 135q-125 141 -125 381z" />
<glyph unicode="1" horiz-adv-x="745" d="M82 997q33 -37 65 -77q2 2 207 145v-1065h105v1186h-105z" />
<glyph unicode="2" horiz-adv-x="1007" d="M113 0h745v90q-39 10 -475 0l-150 -4l357 369q152 156 211 264q49 86 49 174q0 139 -97.5 228t-252.5 89q-193 0 -287 -114q-53 -63 -84 -189q53 -6 113 -12q12 113 90 178q68 55 162 55q92 0 163 -53q88 -66 88 -182q0 -147 -208 -365l-424 -442v-86z" />
<glyph unicode="3" horiz-adv-x="1007" d="M76 -281q156 -25 254 -24q244 0 383 119q147 123 147 452q0 258 -225 350h-2v9q199 84 198 280q0 100 -40 170q-80 129 -287 129q-291 0 -381 -239q4 -2 100 -39q63 182 283 182q217 0 217 -209q0 -162 -137 -207q-49 -14 -133 -14h-60v-111l15 2l63 -2q137 -2 213 -94 q72 -84 76 -223q-6 -143 -25 -211q-20 -78 -73 -131q-111 -113 -314 -113q-98 0 -254 25z" />
<glyph unicode="4" horiz-adv-x="1044" d="M70 102h624v-346h101v346h172v82h-172v1002h-160q0 -2 -565 -973v-111zM156 186l516 873q6 18 20 49h4q-4 -61 -4 -88v-834h-536z" />
<glyph unicode="5" horiz-adv-x="915" d="M31 -281q156 -25 254 -24q242 0 386 121t144 450q0 268 -215 371q-70 35 -192 41q-61 2 -172 2q0 10 2 33l8 389h508v86h-600l-17 -617h19l270 -4q139 -2 215 -92q68 -84 72 -225q-4 -143 -23 -211q-20 -78 -74 -131q-111 -113 -313 -113q-98 0 -254 25z" />
<glyph unicode="6" horiz-adv-x="1091" d="M102 522q-10 -229 103.5 -372.5t316.5 -153.5q209 -10 334 117t137 362q10 205 -113.5 361.5t-304.5 167.5q-207 10 -352 -168l2 30q18 236 135 365q129 141 357 129q98 -4 252 -37l22 98q-154 33 -252 39q-250 12 -389 -98q-205 -164 -227 -490l-17 -307q0 -14 -4 -43z M211 516q8 160 115.5 273.5t242.5 107.5q135 -8 230.5 -132t87.5 -284q-8 -178 -107.5 -282.5t-251.5 -96.5q-154 8 -239.5 121t-77.5 293z" />
<glyph unicode="7" horiz-adv-x="1001" d="M78 1090h731l-680 -1369h113l682 1369v98h-846v-98z" />
<glyph unicode="8" horiz-adv-x="1075" d="M135 463q-12 -209 92.5 -339t288.5 -140q178 -10 289 92q129 115 141 344q6 131 -52 248.5t-169 181.5q111 88 121 274q6 141 -81 250t-212 117q-117 6 -211 -80q-113 -100 -119 -254q-12 -215 129 -313q-94 -57 -152.5 -158.5t-64.5 -222.5zM250 457q8 156 121 256 q86 78 188 73q117 -6 199 -114.5t73 -245.5q-8 -170 -108 -260q-82 -74 -201 -68q-141 6 -213 115q-67 97 -59 244zM332 1151q6 96 70.5 164.5t144.5 64.5q82 -4 138 -79.5t52 -172.5q-6 -88 -47 -149q-47 -68 -129 -78q-23 0 -45 -2q-88 6 -138 74.5t-46 177.5z" />
<glyph unicode="9" horiz-adv-x="1075" d="M90 709q-12 -229 101.5 -372.5t316.5 -156.5q229 -10 356 142l-2 -5q-16 -236 -135 -364q-129 -141 -356 -129q-98 4 -250 37l-25 -99q154 -33 252 -38q250 -12 389 98q205 164 228 489q6 90 16 316q0 16 -2 28v7q10 205 -114 360.5t-304 165.5t-320.5 -132t-150.5 -347z M197 702q8 158 116.5 273t243.5 106q133 -6 228.5 -131t86.5 -282q-8 -178 -107 -283.5t-251 -97.5q-154 8 -239.5 120.5t-77.5 294.5z" />
<glyph unicode=":" d="M203 0v143h143v-143h-143zM203 1040v144h143v-144h-143z" />
<glyph unicode=";" d="M137 -129q86 47 86 129h-41v143h144v-143q-2 -133 -152 -213zM182 1040v144h144v-144h-144zM223 0h103l-103 2v-2z" />
<glyph unicode="&#x3c;" horiz-adv-x="1054" d="M166 815l579 -815h125l-579 815l586 823h-127z" />
<glyph unicode="=" horiz-adv-x="940" d="M104 440v101h721v-101h-721zM104 717v100h721v-100h-721z" />
<glyph unicode="&#x3e;" horiz-adv-x="1054" d="M166 1638h125l586 -823l-582 -815h-125l580 815z" />
<glyph unicode="?" horiz-adv-x="944" d="M41 1384q35 -10 92 -30q43 104 98 143q66 47 199 47q152 0 229 -82q66 -74 66 -192q0 -109 -45 -183q-29 -45 -135 -159l-2 -4q-115 -123 -140 -166q-31 -51 -30 -131v-316h100v283q0 94 29 141q23 37 131 150q104 104 141 170q49 86 49 207q0 190 -125 290 q-102 84 -262 84q-315 0 -395 -252zM358 0v143h144v-143h-144z" />
<glyph unicode="@" horiz-adv-x="1679" d="M113 805q0 -344 178 -586q199 -266 532 -266q301 0 512 221l-104 41q-168 -168 -408 -168q-293 0 -458 242q-147 213 -148 518q0 303 148 516q166 242 458 242q293 0 475 -240q166 -217 166 -518q0 -147 -39 -272h-315v645l-20 2q-90 10 -240 16q-152 8 -257.5 -88 t-129.5 -250q-6 -39 -6 -74q0 -147 82 -251q88 -113 231 -113q131 0 231 100v-78h504v2q63 164 64 359q0 348 -197 594q-211 266 -549 266q-334 0 -532 -270q-178 -244 -178 -590zM569 784q0 162 97 246q74 68 170 62q39 -2 165 -11v-129q0 -145 3 -164l-3 9 q0 -106 -65 -185q-68 -84 -170 -84q-98 0 -162 111q-35 59 -35 145z" />
<glyph unicode="A" horiz-adv-x="1355" d="M41 0h109l204 580h641l209 -580h109l-590 1634h-107zM389 682l281 799l288 -799h-569z" />
<glyph unicode="B" horiz-adv-x="1230" d="M143 0h2q191 -29 378 -29h46q348 10 480 174q91 113 91 322q0 21 -1 43q-6 156 -111 264q-90 92 -229 135q195 94 195 353q0 18 -1 36q-6 160 -155 261q-127 86 -283 92q-59 2 -117 2q-180 0 -293 -17h-2v-1636zM246 88v752h366q154 0 279 -82q145 -96 153 -254 q1 -16 1 -32q0 -169 -82 -257q-119 -131 -433 -139h-30q-109 -1 -254 12zM246 942v617q72 4 151 3q52 0 107 -1q139 -4 252 -72q133 -78 139 -199q1 -14 1 -27q0 -321 -433 -321h-217z" />
<glyph unicode="C" horiz-adv-x="1236" d="M100 743h2q12 -295 107 -460q57 -104 188 -201q150 -111 432 -111q100 0 293 19v102q-207 -20 -315 -20q-213 0 -331 89t-167 175q-84 147 -102 426v52v50q18 281 102 428q47 84 166 174t332 90q109 0 315 -20v102q-193 16 -293 17q-283 0 -432 -109q-131 -98 -188 -200 q-94 -166 -107 -461h-2v-72v-33v-37z" />
<glyph unicode="D" horiz-adv-x="1374" d="M164 0h2q190 -16 323 -16q291 0 457 108q131 86 201 203q100 172 115 455q2 47 2 69q0 23 -2 70q-12 293 -115 459q-63 104 -201 198q-160 109 -457 109q-35 0 -141 -7.5t-153 -7.5h-31v-1640zM266 92v551v901q166 12 246 12q233 0 360 -88q121 -82 177 -172 q90 -150 108 -426v-51v-51q-18 -279 -110 -428q-55 -90 -177 -170q-135 -88 -358 -88q-80 0 -246 10z" />
<glyph unicode="E" horiz-adv-x="1089" d="M164 0h819v100l-717 -2v543v199h719v102h-719v590h719v102h-719h-102v-1634z" />
<glyph unicode="F" horiz-adv-x="1085" d="M164 0h102v641v199h719v102h-719v590h719v102h-719h-102v-1634z" />
<glyph unicode="G" horiz-adv-x="1409" d="M117 748h2q14 -293 108 -457q61 -102 195 -199q152 -109 442 -108q197 0 326 8l70 6v733v103h-521v-103h414v-639q-168 -10 -313 -10q-217 0 -338 89t-170 173q-86 145 -105 424q-2 8 -2 49t2 51q18 276 105 422q49 86 170 174t338 88q111 0 323 -18v100q-197 16 -299 17 q-291 0 -442 -109q-133 -96 -195 -199q-94 -164 -108 -456h-2v-70v-33v-36z" />
<glyph unicode="H" horiz-adv-x="1376" d="M174 0h102v840h826v-840h100v1632h-100v-690h-826v690h-102v-1632z" />
<glyph unicode="I" d="M225 -2h103v1640h-103v-1640z" />
<glyph unicode="J" horiz-adv-x="577" d="M-39 -152v-94q158 12 250 90q80 72 113 207q27 115 28 324v1261h-104q2 -114 2 -427.5t-2 -827.5q-2 -365 -121 -467q-66 -58 -166 -66z" />
<glyph unicode="K" horiz-adv-x="1323" d="M188 0h103v838q424 -385 839 -838h136q-430 483 -877 893l836 741h-154l-780 -692v692h-103v-1634z" />
<glyph unicode="L" horiz-adv-x="1105" d="M207 2h823v100h-721v539v995h-102v-1634z" />
<glyph unicode="M" horiz-adv-x="1679" d="M205 2h102v1417l537 -1081l520 1075v-1411h100v1636h-100l-522 -1038l-535 1038h-102v-1636z" />
<glyph unicode="N" horiz-adv-x="1531" d="M221 2h103v1444l893 -1444h2h100l2 1638h-102v-1445l-895 1445h-103v-1638z" />
<glyph unicode="O" horiz-adv-x="1646" d="M113 815q0 -354 190 -592q195 -246 504 -246q313 0 524 246q205 242 205 592q0 352 -205 594q-211 246 -524 246q-309 0 -504 -246q-190 -238 -190 -594zM215 815q0 317 158 524q166 217 434 217q270 0 448.5 -215t178.5 -526q0 -309 -178.5 -525t-448.5 -216 q-268 0 -434 217q-158 209 -158 524z" />
<glyph unicode="P" horiz-adv-x="1343" d="M217 -6h102v586q197 -16 299 -17q217 0 388 129q188 145 211 375q0 16 2 45v43q-2 8 -2 33q-6 133 -62 223q-39 66 -129 139q-142 117 -349 117q-29 0 -59 -2q-72 0 -401 -27v-1644zM319 682v322v16q-1 14 -1 28.5t1 28.5v15v454q193 20 322 21q18 1 36 1q166 0 294 -104 q129 -106 141 -290q1 -9 1 -26.5t-1 -41.5q-2 -23 -6 -53q-27 -172 -158 -277q-140 -115 -283 -115q-12 0 -24 1q-58 0 -322 20z" />
<glyph unicode="Q" horiz-adv-x="1675" d="M119 813q0 -350 182 -586q188 -244 487 -256q35 -248 191 -385q96 -84 262 -108q53 -8 117 -8q100 0 252 24l-19 103q-152 -25 -250 -25q-145 0 -255.5 68.5t-159.5 197.5q-23 61 -35 137q287 31 472 269.5t185 568.5q0 352 -209 596t-522 244q-311 0 -508 -246 q-190 -238 -190 -594zM221 813q0 315 160 524q166 219 434 219q270 0 449.5 -216t179.5 -527q0 -313 -179.5 -528t-449.5 -215q-268 0 -434 217q-160 209 -160 526z" />
<glyph unicode="R" horiz-adv-x="1404" d="M223 0h103v700q102 -10 163 -12q340 -319 674 -682h135q-326 362 -659 686q240 23 359.5 132.5t140.5 338.5v4v2q-2 215 -109 330q-137 145 -461 156q-18 1 -37 0q-125 0 -309 -23v-1632zM326 801v741q96 9 174 9q16 0 30 -1q293 -8 410 -123q90 -86 90 -258 q-4 -223 -168 -309q-123 -68 -370 -67q-14 2 -29 0q-61 2 -137 8z" />
<glyph unicode="S" horiz-adv-x="1146" d="M152 111q109 -86 284 -121q55 -10 113 -10q168 0 295 79q121 74 151 246q10 59 11 103q0 113 -95 215q-82 88 -354 290q-172 127 -231.5 195t-59.5 137q0 27 8 64q29 145 134 215q70 47 167 47q49 0 107 -12q137 -27 248 -123v106q-111 82 -232 107q-63 12 -123 12 q-141 0 -243 -68q-127 -86 -164 -264q-8 -39 -8 -76q0 -141 125 -262q31 -29 260 -196q182 -133 239 -191q113 -113 113 -217q0 -23 -4 -45q-57 -268 -320 -268q-47 0 -98 10q-170 35 -323 137v-110z" />
<glyph unicode="T" horiz-adv-x="1142" d="M94 1534h426v-1534h103v1534h426v102h-955v-102z" />
<glyph unicode="U" horiz-adv-x="1437" d="M190 547q0 -571 527 -572q524 0 524 572v1083h-115v-1073q0 -219 -75 -332q-98 -141 -334 -141t-334 141q-78 113 -78 332v1073h-115v-1083z" />
<glyph unicode="V" horiz-adv-x="1470" d="M104 1630l588 -1632h109l573 1632h-108l-521 -1478l-532 1478h-109z" />
<glyph unicode="W" horiz-adv-x="2166" d="M100 1636l463 -1634h111l407 1438l406 -1438h2h110l463 1634h-110l-408 -1439l-407 1439h-111l-408 -1439l-407 1439h-111z" />
<glyph unicode="X" horiz-adv-x="1372" d="M94 1636l518 -831l-501 -803h120l443 707l442 -707h121l-504 803l518 831h-121l-456 -733l-459 733h-121z" />
<glyph unicode="Y" horiz-adv-x="1298" d="M68 1636l528 -839v-795h102v789l9 14l520 831h-121l-459 -733l-459 733h-120z" />
<glyph unicode="Z" horiz-adv-x="1257" d="M170 1534h766l-756 -1532h58v-2h864v102h-758l758 1534h-2h2h-115h-817v-102z" />
<glyph unicode="[" horiz-adv-x="901" d="M272 -631h2h431v103h-328v2406h328v102h-328h-105v-2611z" />
<glyph unicode="\" horiz-adv-x="878" d="M158 1872h104l451 -1878h-105z" />
<glyph unicode="]" horiz-adv-x="901" d="M272 -528h330v2406h-330v102h330h103v-2611h-433v103z" />
<glyph unicode="^" horiz-adv-x="757" d="M84 1438l55 -84l232 155l233 -155l55 84l-288 192z" />
<glyph unicode="_" horiz-adv-x="1314" d="M98 0v102h1121v-102h-1121z" />
<glyph unicode="`" horiz-adv-x="638" d="M129 1509l330 -163l45 88l-330 163z" />
<glyph unicode="a" horiz-adv-x="1273" d="M100 541q0 -229 129 -400q141 -184 363 -184q182 0 326 125q70 61 110 123v-72v-133h102v1174q-240 27 -401 28q-23 2 -46 2q-204 0 -353 -133q-178 -156 -219 -409q-11 -62 -11 -121zM207 537q0 125 45 245q49 133 133 207q131 116 290 116q15 0 32 -1q57 0 321 -21 v-526q-2 -240 -162 -381q-133 -115 -282 -115q-188 0 -312 207q-65 113 -65 269z" />
<glyph unicode="b" horiz-adv-x="1232" d="M143 -2q240 -27 402 -29q20 -1 39 -1q197 0 348 132q182 158 209 443q2 14 2 43q1 14 1 25.5t-1 19.5v31q-8 209 -119 350q-115 150 -311 180q-70 10 -168 10q-102 0 -299 -18v690h-103v-1876zM246 88v455v14v57v15v454q193 18 321 21q22 2 44 1q175 0 286 -105 q125 -118 141 -351v-67q-2 -25 -6 -56q-39 -242 -158 -344q-131 -115 -282 -115q-12 0 -25 1q-57 0 -321 20z" />
<glyph unicode="c" horiz-adv-x="1120" d="M84 586q0 -12 2 -43q29 -285 211 -443q147 -131 378 -131h7q51 2 109 8q133 16 266 56q0 -6 -2 24v76q-133 -37 -170 -45q-82 -22 -180 -22q-23 0 -46 2q-176 0 -307 114q-117 102 -155 344q-6 31 -7 56t-1 41.5t1 25.5q14 233 142 352q109 102 327 103q106 0 312 -21 v103q-188 16 -289 16q-274 0 -408 -117q-178 -156 -188 -423q0 -8 -2 -31v-45z" />
<glyph unicode="d" horiz-adv-x="1261" d="M78 541q0 -229 129 -400q141 -184 362 -184q182 0 326 125q70 61 113 123v-72v-133h100v1874h-100v-690q-197 18 -301 18q-250 0 -400 -131q-178 -156 -219 -409q-10 -62 -10 -121zM184 537q0 125 45 245q49 133 136 207q131 116 288 116q15 0 31 -1q57 0 324 -21 q2 -28 2 -159t-2 -367q-2 -240 -164 -381q-133 -115 -281 -115q-190 0 -311 207q-68 113 -68 269z" />
<glyph unicode="e" horiz-adv-x="1212" d="M82 543q35 -289 209 -443q149 -131 380 -131h7q51 2 106 8q135 16 267 56q0 -6 0 24v76q-133 -37 -170 -45q-82 -22 -180 -22q-23 0 -46 2q-176 0 -307 114q-117 102 -155 344q-6 31 -7 56v10h924q1 15 1 30q0 197 -99 355q-119 188 -320 221q-37 6 -71 6 q-182 0 -326 -127q-190 -166 -211 -420q-2 -12 -2 -26v-45v-43zM190 694q27 176 158 291t279 115q190 0 311 -209q51 -84 63 -197h-811z" />
<glyph unicode="f" horiz-adv-x="761" d="M111 1083h172v-1085h102v1085h266v103h-266v90q10 358 115 453q66 55 164 63v92q-156 -12 -244 -90q-76 -68 -107 -199q-25 -104 -30 -313v-96h-172v-103z" />
<glyph unicode="g" horiz-adv-x="1318" d="M104 545q0 -231 129 -402q141 -184 365 -184q182 0 326 125q70 61 112 123v-72v-149v-66q-6 -285 -149 -409q-127 -111 -312 -111q-100 0 -253 25l-19 -101q154 -25 254 -24q63 0 117 6q168 25 264 110q197 172 201 500q1 73 1 152t-1 165v949q-240 25 -404 26 q-23 2 -46 2q-204 0 -355 -133q-180 -156 -221 -411q-9 -62 -9 -121zM211 541q0 125 45 247q49 131 135 207q132 115 295 116q13 0 27 -1q57 0 323 -18q2 -29 2 -161.5t-2 -369.5q-2 -240 -164 -383q-133 -117 -282 -117q-190 0 -314 211q-65 113 -65 269z" />
<glyph unicode="h" horiz-adv-x="1357" d="M195 -2h102v649q0 211 164 352q133 117 280 117q25 0 47 -2q111 -18 167.5 -56t105.5 -120q61 -102 61 -299v-639h107v639q-2 233 -76 356q-57 102 -134 150.5t-212 68.5q-37 6 -72 7q-129 0 -250 -70q-111 -66 -188 -178v911h-102v-1886z" />
<glyph unicode="i" horiz-adv-x="499" d="M201 -2h102v1188h-102v-1188zM201 1384h102v103h-102v-103z" />
<glyph unicode="j" horiz-adv-x="532" d="M-70 -602v-94q154 12 242 90q80 68 111 198q27 113 28 316v1278h-102q2 -112 2 -430.5t-2 -843.5q-2 -352 -117 -451q-64 -57 -162 -63zM209 1384h102v103h-102v-103z" />
<glyph unicode="k" horiz-adv-x="1089" d="M211 -2h102v541l62 63q289 -285 530 -602h129q-266 358 -585 674l522 512h-148l-510 -502v1200h-102v-1886z" />
<glyph unicode="l" horiz-adv-x="532" d="M203 -4h102v1886h-102v-1886z" />
<glyph unicode="m" horiz-adv-x="2134" d="M197 0h102v856q31 88 100 150q133 117 273 116q213 0 289 -164q55 -119 59 -313v-647h106v643q0 74 -2 117q27 162 125 248q133 117 273 116q213 0 288 -164q55 -119 60 -313v-647h106v643q0 248 -71 387q-84 160 -322 193q-35 6 -70 6q-174 0 -315 -125 q-74 -63 -115 -141q-82 221 -350 260q-35 6 -69 6q-211 0 -365 -174v133h-102v-1186z" />
<glyph unicode="n" horiz-adv-x="1378" d="M195 0h102v647q0 209 162 352q133 117 282 117q23 0 45 -4q111 -18 168.5 -55t104.5 -121q61 -102 61 -297v-639h107v639q0 229 -74 356q-59 100 -135 148.5t-213 70.5q-35 4 -72 5q-129 0 -244.5 -68t-191.5 -178v211h-102v-1184z" />
<glyph unicode="o" horiz-adv-x="1288" d="M98 590q0 -287 149.5 -453t395.5 -166q256 0 400.5 164t144.5 455q0 254 -164 436t-381 182q-215 0 -380 -182t-165 -436zM205 590q0 211 133 363.5t307 152.5t307 -152.5t133 -363.5q0 -236 -122.5 -376t-317.5 -140q-199 0 -319.5 138t-120.5 378z" />
<glyph unicode="p" horiz-adv-x="1292" d="M188 -702h103v692q197 -18 299 -19q240 0 389 131q182 160 209 443q2 16 2 45q1 19 1 31q0 7 -0.5 20t-0.5 25q-12 268 -191 426q-135 119 -348 118q-31 0 -61 -2q-72 0 -402 -28v-1882zM291 90v455v16v57v15v454q193 20 323 23q20 1 39 1q178 0 291 -105 q125 -117 141 -355q0 -16 -2 -65q0 -25 -4 -56q-41 -244 -157 -346q-132 -115 -283 -115q-12 0 -25 1q-59 0 -323 20z" />
<glyph unicode="q" horiz-adv-x="1292" d="M90 545q0 -231 129 -402q141 -184 365 -184q184 0 327 125q68 61 111 123v-72v-837h102v1882q-240 27 -403 28l-41 2q-207 0 -361 -133q-178 -158 -219 -413q-10 -60 -10 -119zM199 541q0 125 43 245q49 133 135 209q132 115 295 116q13 0 26 -1q59 0 324 -23v-526 q-2 -240 -164 -383q-133 -117 -280 -117q-190 0 -314 211q-65 113 -65 269z" />
<glyph unicode="r" horiz-adv-x="688" d="M168 0h102v557q0 18 13 92q37 227 172 346q68 57 149 86v105q-119 -33 -207 -109q-74 -66 -127 -155v262h-102v-1184z" />
<glyph unicode="s" horiz-adv-x="800" d="M76 909q0 -133 137 -245l256 -172q137 -102 137 -209q0 -20 -4 -41q-37 -197 -221 -197q-162 0 -297 121l-4 -113q80 -61 209 -86q45 -10 90 -10q125 0 211 63q94 66 119 189q8 45 8 82q0 96 -72 180t-260 201q-203 123 -203 225q0 18 6 45q33 164 205 164q31 0 68 -6 q76 -12 114 -33q49 -23 113 -86l10 96q-119 123 -325 123q-246 0 -291 -229q-6 -33 -6 -62z" />
<glyph unicode="t" horiz-adv-x="702" d="M76 1081h172q-2 -129 -2 -258t2 -258q4 -262 10 -319q18 -143 92 -207q45 -39 142 -49q35 -4 155 -4v88q-16 0 -31 -1q-145 0 -188 36q-57 51 -72 186q-4 39 -6 276q-2 128 -2 255.5t2 254.5h264v103h-264v198h-102v-198h-172v-103z" />
<glyph unicode="u" horiz-adv-x="1249" d="M137 541q0 -246 72 -383q84 -158 321 -193q33 -4 68 -4q209 0 365 172v-133h100v1182h-100v-852q-33 -90 -103 -152q-131 -115 -270 -115q-211 0 -287 162q-55 119 -59 314v643h-107v-641z" />
<glyph unicode="v" horiz-adv-x="1062" d="M57 1182l428 -1182h107l416 1182h-109l-360 -1028l-373 1028h-109z" />
<glyph unicode="w" horiz-adv-x="1892" d="M53 1182l428 -1182h109l360 1030l375 -1030h107l415 1182h-108l-361 -1028l-372 1028h-2h-107l-362 -1028l-373 1028h-109z" />
<glyph unicode="x" horiz-adv-x="1179" d="M61 0h129l400 512l397 -512h129l-463 596l455 586h-131l-387 -502l-391 502h-129l454 -586z" />
<glyph unicode="y" horiz-adv-x="1073" d="M61 1182l428 -1182l-161 -463q-14 -41 -60 -86q-59 -59 -157 -72l4 -92q154 20 235 101q45 43 70 108h2q2 10 8 27l582 1659h-107l-362 -1028l-373 1028h-109z" />
<glyph unicode="z" horiz-adv-x="1050" d="M86 0h121h760v102h-693l705 1080h-121v-2h-772v-101h705z" />
<glyph unicode="{" horiz-adv-x="1085" d="M76 725h225q-2 -27 0 -49q6 -188 31 -385q57 -475 194 -922h432v103h-358q-190 705 -197 1204q-8 500 195 1202h360v102h-329h-103q-182 -557 -223 -1153h-227v-102z" />
<glyph unicode="|" horiz-adv-x="573" d="M244 -631v2611h102v-2611h-102z" />
<glyph unicode="}" horiz-adv-x="1085" d="M76 -528h358q188 705 197 1204q6 500 -195 1202h-360v102h330h102q180 -557 223 -1153h227v-102h-225v-49q-6 -188 -31 -385q-57 -475 -194 -922h-432v103z" />
<glyph unicode="&#xa9;" horiz-adv-x="9033" d="M164 526l24 -18v74l-24 -21v-35zM215 489l27 -18v147l-27 -18v-111zM266 453l27 -21v223l-27 -18v-184zM317 414l27 -19v297l-27 -18v-260zM369 377l26 -19v373l-26 -18v-336zM422 338l24 18v412l-24 -18v-410v-2zM473 377l25 20v408l-25 -19v-409zM524 418l25 20v406 l-25 -21v-405zM575 459l27 20v402l-27 -19v-403zM604 1980h354l138 -448q4 12 135 448h375l145 -448q4 18 127 448h350l-289 -886h-399l-125 379l-123 -379h-399zM627 500l26 18v400l-26 -19v-399zM643 178l10 -6v37zM678 154l27 -21v236l-27 -80v-135zM678 539l27 20v397 l-27 -20v-397zM729 115l27 -19v430l-27 -80v-331zM729 580l27 20v393l-27 -18v-395zM782 78l25 -19v971l-25 -18v-389q4 2 6 4q-2 -8 -6 -21v-528zM834 41l24 -18v1044l-24 -18v-1008zM885 4l24 -18v1095l-16 13l-8 -7v-1083zM936 -35l10 -6l17 12v1073l-27 19v-1098z M987 -10l27 20v998l-27 18v-1036zM1038 29l27 20v920l-27 20v-960zM1090 68l26 20v410l-18 -15l18 60v389l-26 18v-882zM1143 106l24 21v408l-24 -19v-410zM1143 623l24 79v193l-24 18v-290zM1167 -199v-2v-2v4zM1194 -123v-98l25 -19v193zM1194 147l4 3l21 -64v485l-25 -18 v-406zM1194 784l23 74l-23 19v-93zM1245 -258l25 -18v886l-25 -20v-848zM1296 -295l27 -18v960l-27 -18v-924zM1348 -334l26 -18v1036l-26 -18v-1000zM1399 -371l16 -10l10 6v1084l-8 4l-4 2l-14 -13v-1073zM1450 -356l27 18v1008l-27 20v-1046zM1503 -319l25 18v934l-25 18 v-970zM1554 -283l25 21v858l-25 18v-897zM1606 -23v-221l24 19v125zM1606 61l24 80v416l-24 21v-517zM1614 860l16 -51v61zM1657 133l26 -18v405l-26 19v-406zM1657 -176v-31l8 6zM1657 727l26 -80v262l-26 -18v-164zM1708 94l27 -18v407l-27 19v-408zM1708 567l27 -80v459 l-27 -18v-361zM1759 55l27 -18v946l-27 -18v-910zM1810 16l27 -18v1022l-27 -19v-985zM1862 -23l24 -18l2 2v1098l-26 -19v-1063zM1915 -20l24 18v1096h-2l-22 -17v-1097zM1966 16l25 21v1018l-25 18v-1057zM2017 55l25 19v944l-25 18v-981zM2068 92l27 19v360l-27 80v-459z M2068 608q6 -4 27 -20v393l-27 18v-391zM2120 129l26 18v166l-26 78v-262zM2120 567l26 -20v395l-26 21v-396zM2171 166l18 14l-18 53v-67zM2171 526l27 -20v399l-27 19v-398zM2222 485l27 -20v403l-27 19v-402zM2275 444l25 -20v405l-25 21v-406zM2327 403l24 -20v410 l-24 18v-408zM2378 365l24 -21v412l-24 18v-409zM2429 354l27 19v346l-27 18v-383zM2480 391l27 19v270l-27 18v-307zM2531 428l27 18v197l-27 19v-234zM2583 465l26 18v123l-26 19v-160zM2636 504l24 18v45l-24 21v-84zM2687 541l6 4l-6 4v-8zM2957 764v49h441v-49h-197 v-709h-47v709h-197zM3432 305v297h50v-297q0 -219 159 -219q53 0 103.5 35t68.5 88v393h47v-547h-47v62q-72 -78 -168 -78q-133 0 -180 90q-33 63 -33 176zM4033 -268v870q141 12 184 12h13h16q111 0 177 -69.5t70 -179.5q0 -6 2 -17q0 -14 -2 -41q-12 -121 -83.5 -192.5 t-192.5 -71.5q-47 0 -137 8v-319h-47zM4080 98q82 -6 149 -10q178 -8 215 213q4 29 2 55q-14 221 -217 213q-86 -4 -149 -10v-461zM4831 813h51l189 -666l188 666h51l189 -666l188 666h51l-215 -756h-51l-188 664l-187 -664h-51zM5784 305q0 154 106 246q76 66 184 61 l187 -14v-541h-47v95q-20 -29 -52 -58q-68 -57 -151 -57q-102 0 -168 84q-59 78 -59 184zM5833 305q0 -74 30 -125q57 -96 144 -96q90 0 147.5 69.5t59.5 159.5v244q-70 4 -150 8q-104 6 -172 -78q-59 -76 -59 -182zM6416 55v547h47v-96q78 113 201 112q78 0 131 -34 q96 -61 97 -234v-295h-50v295q0 145 -75 195q-43 27 -99 26q-84 0 -144.5 -66.5t-60.5 -150.5v-299h-47zM6695 1094v39l194 204q96 100 97 168q0 49 -34 79t-83 30q-104 0 -115 -107l-53 4q35 141 172 142q68 0 115 -40t47 -108q0 -78 -121 -202l-164 -170l70 2q199 6 219 0 v-41h-344zM6998 305q0 135 80 220t211 85q49 0 139 -8v320h47v-867h-47v97q-20 -31 -51 -58q-66 -57 -152 -57q-102 0 -168 84q-59 78 -59 184zM7049 303q0 -70 31 -123q55 -96 143 -96t146.5 69.5t58.5 159.5v244q-66 4 -149 8q-104 6 -170 -78q-60 -75 -60 -184z M7156 1366q0 111 71.5 199t180.5 88q106 0 177.5 -88t71.5 -199q0 -127 -59 -203q-66 -82 -190 -82q-123 0 -191 84q-61 78 -61 201zM7203 1366q0 -102 51 -166q55 -72 154 -72q98 0 153 72q49 66 49 166q0 90 -57 165t-145 75t-146.5 -75t-58.5 -165zM7584 307v21v10v13v9 q10 117 98 193q68 59 150 59q115 0 182 -104q49 -80 45 -178h-428v-6q0 -8 4 -25q35 -209 213 -211q61 -2 104 8q18 4 78 21v-45q-94 -29 -172 -29q-119 -2 -189.5 69.5t-84.5 194.5zM7633 377h375q-4 51 -29 90q-57 98 -143 98q-76 0 -133.5 -56t-69.5 -132zM7764 1366 q0 111 71.5 199t180.5 88t180.5 -88t71.5 -199q0 -127 -62 -203q-66 -82 -190 -82q-121 0 -189 84q-63 78 -63 201zM7813 1366q0 -102 49 -166q55 -72 154 -72q98 0 153 72q51 66 52 166q0 90 -56 162q-61 78 -149 78q-86 0 -144.5 -75t-58.5 -165zM8182 55v549h47v-123 q55 94 153 123v-49q-123 -43 -147 -199q-6 -35 -6 -43v-258h-47zM8358 1141v51l260 448h74v-462h80v-37h-80v-160h-45v160h-289zM8397 1180h248v385q0 12 2 41h-2l-11 -25zM8458 475q0 14 2 29q20 106 135 106q96 0 150 -57l-4 -43q-45 45 -105 53q-18 4 -30 4 q-80 0 -97 -75q-2 -14 -2 -21q0 -47 95 -104q152 -94 151 -177q0 -70 -43 -111.5t-112 -41.5q-80 0 -138 43l2 53q61 -55 138 -55q104 0 104 108q0 51 -63 97q-14 10 -119 79q-64 52 -64 113z" />
<glyph unicode="&#xad;" horiz-adv-x="772" d="M123 596v100h536v-100h-536z" />
<glyph unicode="&#x2000;" horiz-adv-x="989" />
<glyph unicode="&#x2001;" horiz-adv-x="1980" />
<glyph unicode="&#x2002;" horiz-adv-x="989" />
<glyph unicode="&#x2003;" horiz-adv-x="1980" />
<glyph unicode="&#x2004;" horiz-adv-x="659" />
<glyph unicode="&#x2005;" horiz-adv-x="493" />
<glyph unicode="&#x2006;" horiz-adv-x="329" />
<glyph unicode="&#x2007;" horiz-adv-x="329" />
<glyph unicode="&#x2008;" horiz-adv-x="245" />
<glyph unicode="&#x2009;" horiz-adv-x="395" />
<glyph unicode="&#x200a;" horiz-adv-x="108" />
<glyph unicode="&#x2010;" horiz-adv-x="772" d="M123 596v100h536v-100h-536z" />
<glyph unicode="&#x2011;" horiz-adv-x="772" d="M123 596v100h536v-100h-536z" />
<glyph unicode="&#x2012;" horiz-adv-x="772" d="M123 596v100h536v-100h-536z" />
<glyph unicode="&#x2013;" horiz-adv-x="1024" d="M205 512v205h614v-205h-614z" />
<glyph unicode="&#x2014;" horiz-adv-x="2048" d="M205 512v205h1638v-205h-1638z" />
<glyph unicode="&#x2018;" horiz-adv-x="638" d="M129 1509l330 -163l45 88l-330 163z" />
<glyph unicode="&#x2019;" horiz-adv-x="444" d="M160 1411h106l17 227h-123v-227z" />
<glyph unicode="&#x201c;" horiz-adv-x="526" d="M113 1411h106l17 227h-123v-227zM297 1411h106l17 227h-123v-227z" />
<glyph unicode="&#x201d;" horiz-adv-x="526" d="M113 1411h106l17 227h-123v-227zM297 1411h106l17 227h-123v-227z" />
<glyph unicode="&#x2026;" horiz-adv-x="1609" d="M1268 0v143h143v-143h-143zM732 0v143h143v-143h-143zM195 0v143h143v-143h-143z" />
<glyph unicode="&#x202f;" horiz-adv-x="395" />
<glyph unicode="&#x205f;" horiz-adv-x="493" />
<glyph unicode="&#x20ac;" horiz-adv-x="1431" d="M92 594h219q23 -182 82 -295q66 -127 203 -227q152 -113 434 -113q102 0 295 18v105q-207 -20 -317 -21q-348 0 -500 267q-59 102 -86 266h668v102h-680q-2 18 -4 60q-2 16 -3 53q0 43 3 49v14h684v103h-674q25 197 92 315q150 266 500 266q109 0 317 -20v102 q-193 16 -295 17q-285 0 -434 -111q-129 -94 -188 -201q-80 -141 -103 -368h-213v-103h205l-2 -65v-33q0 -33 2 -37h2q2 -18 2 -41h-209v-102z" />
<glyph unicode="&#x2122;" horiz-adv-x="2822" d="M1348 2h102v1417l537 -1081l520 1075v-1411h100v1636h-100l-522 -1038l-535 1038h-102v-1636zM94 1534h426v-1534h103v1534h426v102h-955v-102z" />
<glyph unicode="&#xe000;" horiz-adv-x="1180" d="M0 1180h1180v-1180h-1180v1180z" />
<glyph unicode="&#xfb01;" horiz-adv-x="1261" d="M963 -2h102v1188h-102v-1188zM963 1384h102v103h-102v-103zM111 1083h172v-1085h102v1085h266v103h-266v90q10 358 115 453q66 55 164 63v92q-156 -12 -244 -90q-76 -68 -107 -199q-25 -104 -30 -313v-96h-172v-103z" />
<glyph unicode="&#xfb02;" horiz-adv-x="1294" d="M965 -4h102v1886h-102v-1886zM111 1083h172v-1085h102v1085h266v103h-266v90q10 358 115 453q66 55 164 63v92q-156 -12 -244 -90q-76 -68 -107 -199q-25 -104 -30 -313v-96h-172v-103z" />
<glyph unicode="&#xfb03;" horiz-adv-x="2023" d="M1725 -2h102v1188h-102v-1188zM1725 1384h102v103h-102v-103zM873 1083h172v-1085h102v1085h266v103h-266v90q10 358 115 453q66 55 164 63v92q-156 -12 -244 -90q-76 -68 -107 -199q-25 -104 -30 -313v-96h-172v-103zM111 1083h172v-1085h102v1085h266v103h-266v90 q10 358 115 453q66 55 164 63v92q-156 -12 -244 -90q-76 -68 -107 -199q-25 -104 -30 -313v-96h-172v-103z" />
<glyph unicode="&#xfb04;" horiz-adv-x="2056" d="M1727 -4h102v1886h-102v-1886zM873 1083h172v-1085h102v1085h266v103h-266v90q10 358 115 453q66 55 164 63v92q-156 -12 -244 -90q-76 -68 -107 -199q-25 -104 -30 -313v-96h-172v-103zM111 1083h172v-1085h102v1085h266v103h-266v90q10 358 115 453q66 55 164 63v92 q-156 -12 -244 -90q-76 -68 -107 -199q-25 -104 -30 -313v-96h-172v-103z" />
</font>
</defs>
</svg>
